<svg id="svg" version="1.1" xmlns="http://www.w3.org/2000/svg" xmlns:xlink="http://www.w3.org/1999/xlink" width="400" height="399.91113085980896" viewBox="0, 0, 400,399.91113085980896"><g id="svgg"><path id="path0" d="M313.583 18.106 C 313.217 18.137,311.829 18.242,310.500 18.340 C 307.820 18.536,304.077 19.055,302.667 19.425 C 302.162 19.558,300.941 19.853,299.953 20.081 C 298.228 20.479,295.943 21.166,294.000 21.872 C 293.496 22.055,292.108 22.485,290.917 22.829 C 289.725 23.172,287.475 23.847,285.917 24.328 C 282.633 25.342,280.736 25.909,277.833 26.745 C 276.688 27.075,275.600 27.414,275.417 27.500 C 275.233 27.586,274.183 27.913,273.083 28.227 C 270.866 28.860,267.749 29.790,264.333 30.838 C 263.096 31.217,261.183 31.787,260.083 32.104 C 258.983 32.421,257.933 32.750,257.750 32.835 C 257.567 32.919,256.517 33.246,255.417 33.560 C 253.432 34.127,250.993 34.854,246.667 36.167 C 245.429 36.542,243.442 37.142,242.250 37.500 C 241.058 37.858,239.071 38.458,237.833 38.835 C 236.596 39.211,234.608 39.808,233.417 40.162 C 232.225 40.515,230.275 41.101,229.083 41.463 C 224.138 42.966,221.633 43.723,219.583 44.332 C 218.392 44.686,216.404 45.282,215.167 45.657 C 213.929 46.031,211.942 46.626,210.750 46.979 C 209.558 47.331,207.308 48.013,205.750 48.495 C 202.503 49.497,200.616 50.062,197.667 50.913 C 196.521 51.243,195.471 51.560,195.333 51.617 C 195.196 51.674,194.146 51.999,193.000 52.340 C 191.050 52.919,189.435 53.408,184.083 55.038 C 182.892 55.401,181.017 55.957,179.917 56.273 C 178.817 56.589,177.804 56.894,177.667 56.951 C 177.529 57.008,176.479 57.334,175.333 57.676 C 172.631 58.481,169.317 59.478,166.500 60.333 C 162.514 61.543,156.321 63.410,153.250 64.328 C 152.058 64.684,150.071 65.284,148.833 65.662 C 146.168 66.474,142.910 67.456,139.917 68.350 C 138.725 68.705,136.625 69.335,135.250 69.750 C 133.875 70.165,131.775 70.797,130.583 71.154 C 129.392 71.512,127.404 72.115,126.167 72.496 C 123.335 73.367,120.184 74.306,117.500 75.080 C 116.354 75.410,115.304 75.727,115.167 75.784 C 115.029 75.841,113.979 76.166,112.833 76.506 C 110.883 77.086,109.269 77.574,103.917 79.205 C 102.725 79.568,100.850 80.123,99.750 80.439 C 98.650 80.755,97.638 81.060,97.500 81.117 C 97.362 81.174,96.313 81.501,95.167 81.842 C 94.021 82.184,92.071 82.768,90.833 83.141 C 89.596 83.513,87.704 84.079,86.629 84.398 C 83.114 85.440,79.126 87.120,78.500 87.823 C 78.454 87.875,78.154 88.061,77.833 88.238 C 77.512 88.414,77.106 88.639,76.930 88.738 C 76.332 89.072,72.508 91.652,72.333 91.839 C 72.287 91.888,72.025 92.100,71.750 92.311 C 70.434 93.319,69.591 94.082,67.580 96.083 C 65.514 98.140,65.146 98.554,63.801 100.333 C 61.536 103.330,59.574 107.162,58.735 110.227 C 58.506 111.065,58.228 112.050,58.117 112.417 C 57.962 112.933,57.917 135.976,57.917 214.833 L 57.917 316.583 58.300 318.750 C 59.083 323.174,60.387 327.196,61.867 329.750 C 61.973 329.933,62.338 330.571,62.678 331.167 C 65.014 335.262,69.045 339.707,73.038 342.588 C 76.179 344.856,79.271 346.612,82.395 347.904 C 84.212 348.655,84.284 348.601,83.130 347.355 C 77.016 340.751,75.039 333.608,77.742 327.885 C 79.825 323.474,84.780 319.226,89.433 317.863 C 90.803 317.462,94.189 316.460,97.417 315.501 C 98.700 315.120,100.013 314.734,100.333 314.642 C 100.654 314.551,102.304 314.064,104.000 313.561 C 105.696 313.057,107.683 312.468,108.417 312.252 C 117.798 309.483,120.320 308.738,121.667 308.334 C 122.537 308.073,124.525 307.484,126.083 307.025 C 129.302 306.077,137.015 303.794,140.250 302.832 C 141.442 302.477,144.479 301.576,147.000 300.830 C 149.521 300.084,153.308 298.961,155.417 298.334 C 157.525 297.707,160.563 296.808,162.167 296.335 C 163.771 295.863,166.058 295.185,167.250 294.831 C 168.442 294.476,170.579 293.840,172.000 293.419 C 173.421 292.997,175.296 292.436,176.167 292.172 C 177.037 291.909,180.075 291.005,182.917 290.165 C 185.758 289.324,190.596 287.889,193.667 286.974 C 196.737 286.060,200.637 284.899,202.333 284.395 C 204.029 283.890,206.392 283.187,207.583 282.831 C 212.156 281.468,223.834 278.017,225.583 277.513 C 227.802 276.873,230.941 275.946,234.083 275.002 C 235.367 274.617,237.392 274.013,238.583 273.660 C 239.775 273.307,241.762 272.711,243.000 272.334 C 244.237 271.958,246.225 271.362,247.417 271.010 C 248.608 270.658,250.596 270.067,251.833 269.697 C 253.071 269.326,255.021 268.750,256.167 268.417 C 257.313 268.083,258.400 267.743,258.583 267.660 C 258.767 267.578,259.817 267.254,260.917 266.941 C 262.017 266.627,263.929 266.068,265.167 265.699 C 266.404 265.330,268.354 264.754,269.500 264.419 C 270.646 264.084,271.733 263.743,271.917 263.660 C 272.100 263.578,273.188 263.242,274.333 262.912 C 277.519 261.996,279.080 261.535,281.083 260.921 C 284.255 259.950,286.658 259.218,289.583 258.331 C 292.622 257.410,294.763 256.758,298.333 255.667 C 299.571 255.288,301.446 254.716,302.500 254.394 C 303.554 254.073,305.467 253.484,306.750 253.085 C 308.033 252.687,310.208 252.013,311.583 251.588 C 317.352 249.803,318.869 249.228,322.417 247.479 C 327.334 245.054,330.954 242.280,334.357 238.326 C 335.408 237.105,335.985 236.305,337.835 233.500 C 338.200 232.945,339.766 229.694,339.921 229.167 C 339.988 228.938,340.180 228.450,340.347 228.083 C 340.672 227.367,341.282 225.235,341.777 223.083 C 342.072 221.797,342.083 218.482,342.083 130.000 L 342.083 38.250 341.470 35.996 C 338.528 25.177,330.258 19.077,317.417 18.253 C 316.592 18.201,315.542 18.133,315.083 18.104 C 314.625 18.074,313.950 18.075,313.583 18.106 " stroke="none" fill="#fcfcfc" fill-rule="evenodd"></path><path id="path1" d="M217.083 279.986 C 213.508 281.063,209.121 282.376,207.333 282.905 C 205.546 283.434,202.996 284.192,201.667 284.589 C 197.399 285.867,188.233 288.592,182.917 290.165 C 180.075 291.005,177.037 291.909,176.167 292.172 C 175.296 292.436,173.421 292.997,172.000 293.419 C 170.579 293.840,168.442 294.476,167.250 294.831 C 166.058 295.185,163.771 295.863,162.167 296.335 C 160.563 296.808,157.525 297.707,155.417 298.334 C 153.308 298.961,149.521 300.084,147.000 300.830 C 144.479 301.576,141.442 302.477,140.250 302.832 C 137.015 303.794,129.302 306.077,126.083 307.025 C 124.525 307.484,122.537 308.073,121.667 308.334 C 120.320 308.738,117.798 309.483,108.417 312.252 C 107.683 312.468,105.696 313.057,104.000 313.561 C 102.304 314.064,100.654 314.551,100.333 314.642 C 100.013 314.734,98.700 315.120,97.417 315.501 C 94.189 316.460,90.803 317.462,89.433 317.863 C 87.273 318.496,85.623 319.399,83.250 321.248 C 74.875 327.773,74.329 336.392,81.704 345.666 C 83.874 348.394,83.944 348.447,86.393 349.183 C 87.598 349.546,89.483 350.113,90.583 350.444 C 91.683 350.775,93.521 351.326,94.667 351.667 C 99.890 353.221,100.938 353.536,103.833 354.422 C 105.529 354.940,107.029 355.393,107.167 355.427 C 107.304 355.462,108.017 355.672,108.750 355.895 C 109.483 356.117,110.758 356.498,111.583 356.740 C 113.842 357.404,115.867 358.014,116.333 358.171 C 116.811 358.331,121.118 359.626,123.583 360.350 C 124.500 360.619,125.587 360.945,126.000 361.073 C 127.041 361.396,129.612 362.175,132.667 363.091 C 134.087 363.517,136.188 364.152,137.333 364.501 C 141.414 365.746,146.277 367.198,148.000 367.688 C 148.962 367.962,149.900 368.253,150.083 368.336 C 150.267 368.418,150.754 368.570,151.167 368.674 C 151.579 368.777,153.154 369.236,154.667 369.694 C 156.179 370.152,158.542 370.864,159.917 371.277 C 162.794 372.140,165.368 372.921,168.042 373.743 C 169.073 374.060,170.459 374.467,171.123 374.648 C 171.786 374.829,172.418 375.032,172.527 375.100 C 172.635 375.167,172.993 375.276,173.320 375.343 C 173.648 375.409,174.667 375.699,175.583 375.986 C 176.500 376.274,178.037 376.734,179.000 377.010 C 179.963 377.285,180.862 377.556,181.000 377.613 C 181.137 377.670,181.344 377.737,181.459 377.760 C 181.656 377.802,182.344 378.008,185.917 379.099 C 186.742 379.351,187.496 379.573,187.593 379.592 C 187.690 379.612,188.749 379.940,189.946 380.322 C 194.834 381.882,198.283 382.070,203.583 381.065 C 206.068 380.594,211.575 378.415,211.806 377.812 C 211.836 377.732,211.931 377.667,212.016 377.667 C 212.477 377.667,215.580 375.142,217.180 373.464 C 220.386 370.102,222.680 365.716,223.610 361.167 C 223.992 359.301,224.172 277.989,223.795 278.014 C 223.678 278.022,220.658 278.909,217.083 279.986 " stroke="none" fill="#f4f4f4" fill-rule="evenodd"></path><path id="path2" d="" stroke="none" fill="#fc100f8" fill-rule="evenodd"></path></g></svg>