<svg id="svg" version="1.1" xmlns="http://www.w3.org/2000/svg" xmlns:xlink="http://www.w3.org/1999/xlink" width="400" height="400" viewBox="0, 0, 400,400"><g id="svgg"><path id="path0" d="M62.903 208.750 C 62.899 257.517,62.919 296.967,62.946 296.417 C 62.973 295.867,63.127 294.217,63.289 292.750 C 63.727 288.782,63.706 146.648,63.266 134.167 C 63.112 129.813,62.969 124.862,62.948 123.167 C 62.926 121.471,62.906 159.983,62.903 208.750 M218.750 276.353 C 210.568 278.835,152.295 296.141,117.833 306.324 C 88.796 314.905,91.260 314.064,88.042 316.488 C 79.152 323.187,78.978 332.066,87.546 341.833 C 88.011 342.364,88.320 342.864,88.279 343.021 C 88.222 343.242,88.714 343.443,90.896 344.091 C 95.447 345.443,103.198 347.773,129.500 355.697 C 134.679 357.257,139.629 358.743,140.500 359.000 C 141.371 359.256,146.358 360.757,151.583 362.335 C 156.808 363.913,162.058 365.490,163.250 365.840 C 164.442 366.190,168.042 367.274,171.250 368.248 C 174.458 369.222,177.946 370.273,179.000 370.584 C 180.054 370.895,183.804 372.019,187.333 373.083 C 194.771 375.324,195.559 375.458,199.616 375.170 C 211.553 374.322,220.478 366.885,223.020 355.667 L 223.417 353.917 223.417 314.583 L 223.417 275.250 223.000 275.220 C 222.771 275.204,220.858 275.714,218.750 276.353 " stroke="none" fill="#fb0c63" fill-rule="evenodd"></path><path id="path1" d="M87.411 89.558 C 80.471 92.139,71.054 99.835,67.191 106.083 C 62.951 112.940,62.552 115.826,63.268 134.446 C 63.697 145.598,63.718 289.132,63.292 292.667 C 62.545 298.853,62.898 312.522,63.925 317.195 C 66.132 327.233,73.562 336.283,83.804 341.408 C 88.166 343.591,89.185 343.705,87.537 341.825 C 78.657 331.691,79.226 322.334,89.126 315.712 C 91.472 314.143,91.641 314.084,107.439 309.410 C 115.677 306.972,126.092 303.890,130.583 302.560 C 142.984 298.888,196.460 283.013,206.000 280.170 C 210.629 278.791,216.386 277.082,218.792 276.373 L 223.168 275.083 223.122 227.750 C 223.079 183.327,223.058 180.309,222.780 178.667 C 219.946 161.887,211.169 154.688,183.333 146.312 C 179.187 145.065,175.797 144.119,156.000 138.685 C 116.667 127.889,91.567 119.104,86.696 114.430 C 78.938 106.983,79.117 98.169,87.173 91.012 C 89.118 89.284,89.181 88.900,87.411 89.558 " stroke="none" fill="#2c0c4c" fill-rule="evenodd"></path><path id="path2" d="M307.167 24.829 C 302.298 25.127,294.227 26.761,291.025 28.097 C 290.717 28.226,287.867 29.112,284.691 30.068 C 281.515 31.023,276.517 32.530,273.583 33.416 C 270.650 34.301,266.281 35.620,263.875 36.346 C 253.391 39.510,250.409 40.411,246.208 41.684 C 243.756 42.427,241.037 43.243,240.167 43.498 C 239.296 43.753,237.308 44.353,235.750 44.833 C 234.192 45.312,232.279 45.889,231.500 46.116 C 230.721 46.343,228.733 46.942,227.083 47.446 C 225.433 47.951,223.446 48.551,222.667 48.780 C 221.887 49.009,219.675 49.671,217.750 50.251 C 212.136 51.944,203.928 54.421,199.250 55.834 C 196.867 56.554,191.804 58.080,188.000 59.225 C 181.601 61.151,177.597 62.359,166.042 65.846 C 155.557 69.010,152.575 69.911,148.375 71.184 C 145.923 71.927,143.204 72.743,142.333 72.999 C 140.501 73.536,128.049 77.294,124.000 78.532 C 122.487 78.994,120.537 79.580,119.667 79.833 C 118.796 80.087,115.308 81.133,111.917 82.159 C 102.763 84.928,97.512 86.513,93.417 87.744 C 91.400 88.350,89.511 88.922,89.219 89.016 C 88.926 89.109,88.664 89.315,88.635 89.472 C 88.607 89.630,87.948 90.323,87.173 91.012 C 79.117 98.169,78.938 106.983,86.696 114.430 C 91.567 119.104,116.667 127.889,156.000 138.685 C 175.797 144.119,179.187 145.065,183.333 146.312 C 211.169 154.688,219.946 161.887,222.780 178.667 C 223.058 180.309,223.079 183.336,223.124 227.798 C 223.165 268.033,223.207 275.193,223.404 275.268 C 223.531 275.317,224.186 275.196,224.859 274.999 C 228.013 274.078,256.072 265.693,258.417 264.971 C 259.333 264.689,260.796 264.250,261.667 263.996 C 265.642 262.835,294.985 253.947,301.000 252.082 C 302.879 251.499,305.542 250.676,306.917 250.253 C 312.884 248.416,316.071 247.199,318.993 245.641 C 328.490 240.578,334.744 232.415,336.744 222.474 L 337.169 220.364 337.121 132.307 L 337.074 44.250 336.630 42.583 C 333.280 30.018,323.055 23.856,307.167 24.829 M62.888 119.083 C 62.889 119.725,62.919 119.967,62.955 119.621 C 62.991 119.275,62.990 118.750,62.954 118.455 C 62.917 118.159,62.887 118.442,62.888 119.083 M62.908 302.750 C 62.908 305.683,62.930 306.860,62.958 305.365 C 62.986 303.869,62.986 301.469,62.958 300.031 C 62.930 298.593,62.908 299.817,62.908 302.750 " stroke="none" fill="#2cbbcb" fill-rule="evenodd"></path></g></svg>